<svg width="32" height="33" viewBox="0 0 32 33" fill="none" xmlns="http://www.w3.org/2000/svg">
<path fill-rule="evenodd" clip-rule="evenodd" d="M29.3333 16.4364C29.3333 23.8002 23.3638 29.7697 16 29.7697C8.63621 29.7697 2.66667 23.8002 2.66667 16.4364C2.66667 9.07256 8.63621 3.10303 16 3.10303C23.3638 3.10303 29.3333 9.07256 29.3333 16.4364ZM21.3738 12.3959C21.7643 12.7864 21.7643 13.4196 21.3738 13.8101L14.7071 20.4768C14.3166 20.8673 13.6834 20.8673 13.2929 20.4768L10.6262 17.8101C10.2357 17.4196 10.2357 16.7864 10.6262 16.3959C11.0168 16.0054 11.6499 16.0054 12.0404 16.3959L14 18.3555L16.9798 15.3757L19.9596 12.3959C20.3501 12.0054 20.9833 12.0054 21.3738 12.3959Z" fill="#E2562C"/>
<path fill-rule="evenodd" clip-rule="evenodd" d="M21.3738 12.3959C21.7643 12.7864 21.7643 13.4196 21.3738 13.8101L14.7071 20.4768C14.3166 20.8673 13.6834 20.8673 13.2929 20.4768L10.6262 17.8101C10.2357 17.4196 10.2357 16.7864 10.6262 16.3959C11.0167 16.0054 11.6499 16.0054 12.0404 16.3959L14 18.3555L16.9798 15.3757L19.9596 12.3959C20.3501 12.0054 20.9832 12.0054 21.3738 12.3959Z" fill="white"/>
</svg>
