<svg width="32" height="33" viewBox="0 0 32 33" fill="none" xmlns="http://www.w3.org/2000/svg">
<path d="M13.3835 7.52443L14.2488 9.075C15.0297 10.4743 14.7163 12.31 13.4863 13.5399C13.4863 13.5399 13.4863 13.5399 13.4863 13.5399C13.4862 13.5401 11.9945 15.032 14.6994 17.7368C17.4036 20.4411 18.8955 18.9507 18.8963 18.9499C18.8963 18.9499 18.8963 18.9499 18.8963 18.9499C20.1263 17.7199 21.9619 17.4065 23.3612 18.1874L24.9118 19.0527C27.0248 20.232 27.2743 23.1952 25.417 25.0525C24.301 26.1685 22.9339 27.0368 21.4226 27.0941C18.8784 27.1906 14.5577 26.5467 10.2236 22.2126C5.88951 17.8785 5.24563 13.5578 5.34208 11.0136C5.39937 9.50233 6.26775 8.13518 7.38375 7.01917C9.24102 5.16191 12.2042 5.41145 13.3835 7.52443Z" fill="white"/>
</svg>
